<svg xmlns="http://www.w3.org/2000/svg" viewBox="0 0 160 160"><defs><linearGradient id="bg" x2="1" y2="1"><stop stop-color="#6849e6"/><stop offset="1" stop-color="#f05fa9"/></linearGradient><linearGradient id="o" x2="1" y2="1"><stop stop-color="#fff"/><stop offset="1" stop-color="#e5d9ff"/></linearGradient><filter id="s"><feDropShadow dy="10" stdDeviation="7" flood-color="#492264" flood-opacity=".42"/></filter></defs><rect width="160" height="160" rx="38" fill="url(#bg)"/><circle cx="31" cy="31" r="23" fill="#fff" opacity=".1"/><ellipse cx="80" cy="137" rx="55" ry="8" fill="#421e5b" opacity=".24"/><g filter="url(#s)" transform="rotate(-2 80 85)"><path d="M34 64h92v69H34z" fill="url(#o)"/><path d="M26 62 39 32h82l13 30c-7 16-23 16-30 2-7 14-22 14-29 0-7 14-22 14-29 0-7 14-16 13-20-2Z" fill="#f3eaff"/><rect x="67" y="91" width="27" height="42" rx="5" fill="#d4c8f6"/><path d="M38 46h68" stroke="#fff" stroke-width="5" stroke-linecap="round"/></g></svg>
