<svg xmlns="http://www.w3.org/2000/svg" viewBox="0 0 160 160"><defs><linearGradient id="a" x2="1" y2="1"><stop stop-color="#9776ff"/><stop offset=".6" stop-color="#5b4bd2"/><stop offset="1" stop-color="#29347e"/></linearGradient><linearGradient id="b" y2="1"><stop stop-color="#6fdcff"/><stop offset="1" stop-color="#3983dc"/></linearGradient><filter id="s"><feDropShadow dy="10" stdDeviation="7" flood-color="#393464" flood-opacity=".34"/></filter></defs><ellipse cx="80" cy="142" rx="54" ry="8" fill="#514e5d" opacity=".2"/><g filter="url(#s)" transform="rotate(-2 80 88)"><path d="M34 60h94v73l-11 9H34z" fill="#30336e"/><rect x="31" y="57" width="94" height="77" rx="8" fill="url(#a)"/><path d="m25 59 13-31h81l15 31c-8 17-23 17-30 2-8 15-23 15-31 0-8 15-23 15-31 0-8 15-14 13-17-2Z" fill="#e8e1ff"/><path d="M25 59h109" stroke="#745ee0" stroke-width="9" stroke-dasharray="18 11"/><rect x="43" y="82" width="34" height="30" rx="6" fill="url(#b)"/><rect x="91" y="84" width="20" height="50" rx="5" fill="#d8d9ff"/><path d="m55 106 5-17 6 17 5-17 5 17" fill="none" stroke="#fff" stroke-width="4" stroke-linejoin="round"/></g></svg>
